# Blender 5.2.1 LTS
# www.blender.org
mtllib model.mtl
o Cube
v 1.033432 7.240509 -0.009605
v 0.866285 6.418313 -0.301415
v 1.033980 7.218846 0.889046
v 0.866285 6.418313 1.170488
v 0.000000 7.586377 -0.454143
v 0.000000 6.418313 -0.454143
v 0.000000 7.586377 1.323216
v 0.000000 6.418313 1.323216
v 0.991762 5.110853 -0.301415
v 0.991762 5.110853 1.170488
v 0.000000 4.964121 -0.454143
v 0.000000 4.964121 1.323216
v 1.107700 3.361064 -0.027612
v 1.107700 3.361064 0.896685
v 0.379653 3.364216 -0.138522
v 0.379653 3.364216 1.007595
v 0.780543 0.199964 0.204497
v 0.780543 0.199964 0.664576
v 1.072799 0.198699 0.249019
v 1.072799 0.198699 0.620054
v 0.833167 6.803453 -0.019139
v 0.000000 6.662458 1.323216
v 0.820931 6.731991 0.876845
v 0.000000 6.662458 -0.454143
v 1.387427 7.078401 -0.013351
v 1.384985 7.056870 0.885300
v 1.155388 6.723690 -0.021886
v 1.133421 6.654595 0.874098
v 3.302066 5.856160 -0.049032
v 3.299623 5.834628 0.849620
v 3.070026 5.501448 -0.057566
v 3.048060 5.432353 0.838418
v 0.780048 0.085767 0.204497
v 0.780048 0.085767 0.664576
v 1.072304 0.084502 0.249019
v 1.072304 0.084502 0.620054
v 0.780543 0.199964 1.001146
v 1.072799 0.198699 0.956624
v 0.780048 0.085767 1.001146
v 1.072304 0.084502 0.956624
v 0.354689 7.706861 0.594860
v -0.006198 7.745967 0.746396
v 0.354497 7.709166 0.281207
v -0.006198 7.745967 0.126051
v 0.353309 8.274426 1.194653
v -0.007577 8.313533 1.346190
v 0.353118 8.276731 0.282595
v -0.007577 8.313533 0.127440
v 0.392236 8.644516 1.195559
v 0.000000 8.683622 1.347096
v 0.392045 8.646822 0.283501
v 0.000000 8.683622 0.128345
v 0.429836 9.033051 0.598105
v 0.000000 9.072157 0.749642
v 0.429645 9.035357 0.284452
v 0.000000 9.072157 0.129297
v -1.033432 7.240509 -0.009605
v -0.866285 6.418313 -0.301415
v -1.033980 7.218846 0.889046
v -0.866285 6.418313 1.170488
v -0.991762 5.110853 -0.301415
v -0.991762 5.110853 1.170488
v -1.107700 3.361064 -0.027612
v -1.107700 3.361064 0.896685
v -0.379653 3.364216 -0.138522
v -0.379653 3.364216 1.007595
v -0.780543 0.199964 0.204497
v -0.780543 0.199964 0.664576
v -1.072799 0.198699 0.249019
v -1.072799 0.198699 0.620054
v -0.833167 6.803453 -0.019139
v -0.820931 6.731991 0.876845
v -1.387427 7.078401 -0.013351
v -1.384985 7.056870 0.885300
v -1.155388 6.723690 -0.021886
v -1.133421 6.654595 0.874098
v -3.302066 5.856160 -0.049032
v -3.299623 5.834628 0.849620
v -3.070026 5.501448 -0.057566
v -3.048060 5.432353 0.838418
v -0.780048 0.085767 0.204497
v -0.780048 0.085767 0.664576
v -1.072304 0.084502 0.249019
v -1.072304 0.084502 0.620054
v -0.780543 0.199964 1.001146
v -1.072799 0.198699 0.956624
v -0.780048 0.085767 1.001146
v -1.072304 0.084502 0.956624
v -0.354689 7.706861 0.594860
v 0.006198 7.745967 0.746396
v -0.354497 7.709166 0.281207
v 0.006198 7.745967 0.126051
v -0.353309 8.274426 1.194653
v 0.007577 8.313533 1.346190
v -0.353118 8.276731 0.282595
v 0.007577 8.313533 0.127440
v -0.392236 8.644516 1.195559
v -0.392045 8.646822 0.283501
v -0.429836 9.033051 0.598105
v -0.429645 9.035357 0.284452
vn -0.9992 -0.0388 -0.0000
vn 0.4777 -0.0000 0.8785
vn -1.0000 -0.0000 -0.0000
vn 0.1736 0.0167 0.9847
vn 0.4164 0.9089 0.0229
vn 0.4628 -0.0000 -0.8865
vn 0.9978 0.0661 -0.0000
vn 0.9954 0.0955 -0.0000
vn 0.1522 -0.0000 -0.9883
vn 0.1496 -0.0878 0.9848
vn 0.1723 -0.1511 -0.9734
vn 0.1484 -0.1433 0.9785
vn -0.9730 -0.2309 -0.0000
vn -1.0000 0.0043 -0.0000
vn -0.9921 -0.1257 -0.0000
vn 0.9999 -0.0110 -0.0000
vn 0.1496 -0.0878 -0.9848
vn 0.1736 -0.0000 -0.9848
vn 0.9897 0.1431 -0.0000
vn 0.1736 -0.0000 0.9848
vn -0.0023 0.0256 -0.9997
vn -0.0017 -0.0268 0.9996
vn -0.0028 0.0231 -0.9997
vn -0.2403 -0.9674 -0.0804
vn 0.8479 -0.5297 -0.0201
vn 0.0006 -0.0282 0.9996
vn 0.5382 0.8425 0.0216
vn -0.5375 -0.8397 -0.0779
vn -0.0043 -1.0000 -0.0000
vn 1.0000 -0.0043 -0.0000
vn 0.1506 -0.0007 -0.9886
vn 0.1506 -0.0007 0.9886
vn 0.0043 1.0000 -0.0000
vn -1.0000 -0.0024 -0.0000
vn 0.5778 0.8159 0.0193
vn 0.4282 0.8349 -0.3458
vn 0.2107 0.9427 0.2586
vn 0.3915 -0.0389 -0.9194
vn 0.2055 -0.7106 0.6729
vn 0.3954 0.0032 -0.9185
vn 1.0000 0.0026 -0.0002
vn 0.9945 -0.1046 -0.0005
vn -0.9998 0.0205 -0.0000
vn 0.3595 -0.0096 0.9331
vn 0.0931 0.9956 0.0073
vn 0.2822 0.8042 0.5230
vn 0.3651 -0.0331 -0.9304
vn 0.9953 -0.0970 -0.0005
vn 0.9992 -0.0388 -0.0000
vn -0.3304 -0.1678 0.9288
vn -0.1736 0.0167 0.9847
vn -0.4191 0.9077 0.0216
vn -0.4628 -0.0000 -0.8865
vn -0.9978 0.0661 -0.0000
vn -0.9954 0.0955 -0.0000
vn -0.1736 0.0167 -0.9847
vn -0.1496 -0.0878 0.9848
vn -0.1723 -0.1511 -0.9734
vn -0.1723 -0.1511 0.9734
vn 0.9730 -0.2309 -0.0000
vn 1.0000 0.0043 -0.0000
vn 0.9921 -0.1257 -0.0000
vn -0.9999 -0.0110 -0.0000
vn -0.1496 -0.0878 -0.9848
vn -0.1736 -0.0000 -0.9848
vn -0.9972 0.0716 0.0193
vn -0.3083 0.6735 0.6718
vn 0.0023 0.0256 -0.9997
vn -0.0023 -0.0261 0.9997
vn 0.0028 0.0231 -0.9997
vn 0.2403 -0.9674 -0.0804
vn -0.8369 -0.5472 -0.0108
vn -0.0006 -0.0282 0.9996
vn -0.5382 0.8425 0.0216
vn 0.5375 -0.8397 -0.0779
vn 0.0043 -1.0000 -0.0000
vn -1.0000 -0.0043 -0.0000
vn -0.1506 -0.0007 -0.9886
vn -0.1506 -0.0007 0.9886
vn -0.0043 1.0000 -0.0000
vn 1.0000 -0.0024 -0.0000
vn -0.5778 0.8159 0.0193
vn -0.4282 0.8349 -0.3458
vn -0.4411 0.8258 0.3514
vn -0.3915 -0.0389 -0.9194
vn -0.2055 -0.7106 0.6729
vn -0.3954 0.0032 -0.9185
vn -1.0000 0.0024 -0.0006
vn -0.9945 -0.1046 -0.0005
vn 0.9998 0.0205 -0.0000
vn -0.3829 -0.0425 0.9228
vn -0.0853 0.9964 -0.0000
vn -0.2822 0.8042 0.5230
vn -0.3651 -0.0331 -0.9304
vn -0.9953 -0.0970 -0.0005
vn 0.3304 -0.1678 0.9288
vn 0.1522 -0.0000 0.9883
vn 0.4191 0.9077 0.0216
vn 0.3511 -0.1407 -0.9257
vn 0.1736 0.0167 -0.9847
vn 0.1484 -0.1433 -0.9785
vn 0.1723 -0.1511 0.9734
vn 0.2973 0.5809 -0.7577
vn 0.9972 0.0716 0.0193
vn 0.3083 0.6735 0.6718
vn 0.0023 -0.0261 0.9997
vn 0.0003 0.0238 -0.9997
vn -0.2402 -0.9674 -0.0805
vn 0.8369 -0.5472 -0.0108
vn 0.5697 0.8218 0.0057
vn 0.2070 0.9439 -0.2574
vn 0.4411 0.8258 0.3514
vn 0.3676 -0.0053 -0.9300
vn 1.0000 0.0024 -0.0006
vn 0.3829 -0.0425 0.9228
vn 0.0853 0.9964 -0.0000
vn 0.2624 0.8013 0.5376
vn 0.3398 0.0023 -0.9405
vn 0.9953 -0.0963 -0.0013
vn -0.4777 -0.0000 0.8785
vn -0.1522 -0.0000 0.9883
vn -0.4164 0.9089 0.0229
vn -0.3511 -0.1407 -0.9257
vn -0.1522 -0.0000 -0.9883
vn -0.1484 -0.1433 -0.9785
vn -0.1484 -0.1433 0.9785
vn -0.2973 0.5809 -0.7577
vn -0.9897 0.1431 -0.0000
vn -0.1736 -0.0000 0.9848
vn 0.0017 -0.0268 0.9996
vn -0.0003 0.0238 -0.9997
vn 0.2402 -0.9674 -0.0805
vn -0.8479 -0.5297 -0.0201
vn -0.5697 0.8218 0.0057
vn -0.2070 0.9439 -0.2574
vn -0.2107 0.9427 0.2586
vn -0.3676 -0.0053 -0.9300
vn -1.0000 0.0026 -0.0002
vn -0.3595 -0.0096 0.9331
vn -0.0931 0.9956 0.0073
vn -0.2624 0.8013 0.5376
vn -0.3398 0.0023 -0.9405
vn -0.9953 -0.0963 -0.0013
vt 0.625000 0.000000
vt 0.625000 0.250000
vt 0.427254 0.750000
vt 0.625000 1.000000
vt 0.427254 1.000000
vt 0.427254 0.250000
vt 0.427254 0.000000
vt 0.375000 1.000000
vt 0.375000 0.750000
vt 0.625000 0.500000
vt 0.625000 0.750000
vt 0.427254 0.500000
vt 0.375000 0.500000
vt 0.375000 0.250000
vt 0.375000 0.000000
vt 0.125000 0.750000
vt 0.125000 0.500000
vt 0.875000 0.750000
vt 0.875000 0.500000
s 0
usemtl Material
f 7/1/1 44/2/1 5/2/1
f 23/3/2 7/4/2 22/5/2
f 7/1/3 24/6/3 22/7/3
f 8/8/4 10/9/4 4/9/4
f 1/10/5 26/11/5 25/10/5
f 5/2/6 21/12/6 24/6/6
f 10/9/7 13/13/7 9/13/7
f 6/14/3 12/15/3 8/15/3
f 2/13/8 10/9/8 9/13/8
f 6/14/9 9/13/9 11/14/9
f 14/9/10 18/8/10 20/9/10
f 9/13/11 15/14/11 11/14/11
f 10/9/12 16/8/12 14/9/12
f 11/14/13 16/15/13 12/15/13
f 34/15/14 37/15/14 18/15/14
f 15/14/15 18/15/15 16/15/15
f 14/9/16 19/13/16 13/13/16
f 13/13/17 17/14/17 15/14/17
f 24/6/18 2/13/18 6/14/18
f 2/13/19 23/3/19 4/9/19
f 22/7/3 6/14/3 8/15/3
f 4/9/20 22/5/20 8/8/20
f 25/10/21 31/12/21 27/12/21
f 3/11/22 28/3/22 26/11/22
f 1/10/23 27/12/23 21/12/23
f 21/12/24 28/3/24 23/3/24
f 31/12/25 30/11/25 32/3/25
f 28/3/26 30/11/26 26/11/26
f 25/10/27 30/11/27 29/10/27
f 28/3/28 31/12/28 32/3/28
f 35/13/29 34/16/29 33/17/29
f 17/14/14 34/15/14 18/15/14
f 20/9/30 35/13/30 19/13/30
f 19/13/31 33/14/31 17/14/31
f 37/8/32 40/9/32 38/9/32
f 34/16/29 40/9/29 39/16/29
f 20/9/30 40/9/30 36/9/30
f 18/8/33 38/9/33 20/9/33
f 42/1/34 48/2/34 44/2/34
f 1/10/35 41/11/35 3/11/35
f 5/2/36 43/10/36 1/10/36
f 7/4/37 41/11/37 42/4/37
f 48/2/38 51/10/38 47/10/38
f 42/4/39 45/11/39 46/4/39
f 44/2/40 47/10/40 43/10/40
f 41/11/41 47/10/41 45/11/41
f 52/2/3 54/1/3 56/2/3
f 47/10/42 49/11/42 45/11/42
f 46/1/43 52/2/43 48/2/43
f 46/4/44 49/11/44 50/4/44
f 55/10/45 54/18/45 53/11/45
f 49/11/46 54/4/46 50/4/46
f 52/2/47 55/10/47 51/10/47
f 51/10/48 53/11/48 49/11/48
f 92/2/49 7/1/49 5/2/49
f 72/3/50 7/4/50 59/11/50
f 62/9/51 8/8/51 60/9/51
f 57/10/52 74/11/52 59/11/52
f 71/12/53 5/2/53 24/6/53
f 63/13/54 62/9/54 61/13/54
f 58/13/55 62/9/55 60/9/55
f 6/14/56 61/13/56 58/13/56
f 64/9/57 68/8/57 66/8/57
f 65/14/58 61/13/58 11/14/58
f 62/9/59 66/8/59 12/8/59
f 66/15/60 11/14/60 12/15/60
f 85/15/61 82/15/61 68/15/61
f 68/15/62 65/14/62 66/15/62
f 69/13/63 64/9/63 63/13/63
f 67/14/64 63/13/64 65/14/64
f 58/13/65 24/6/65 6/14/65
f 58/13/66 72/3/66 71/12/66
f 60/9/67 22/5/67 72/3/67
f 79/12/68 73/10/68 75/12/68
f 59/11/69 76/3/69 72/3/69
f 75/12/70 57/10/70 71/12/70
f 76/3/71 71/12/71 72/3/71
f 79/12/72 78/11/72 77/10/72
f 78/11/73 76/3/73 74/11/73
f 73/10/74 78/11/74 74/11/74
f 76/3/75 79/12/75 75/12/75
f 82/16/76 83/13/76 81/17/76
f 82/15/61 67/14/61 68/15/61
f 83/13/77 70/9/77 69/13/77
f 81/14/78 69/13/78 67/14/78
f 88/9/79 85/8/79 86/9/79
f 82/16/76 88/9/76 84/9/76
f 88/9/77 70/9/77 84/9/77
f 86/9/80 68/8/80 70/9/80
f 96/2/81 90/1/81 92/2/81
f 89/11/82 57/10/82 59/11/82
f 91/10/83 5/2/83 57/10/83
f 7/4/84 89/11/84 59/11/84
f 98/10/85 96/2/85 95/10/85
f 90/4/86 93/11/86 89/11/86
f 95/10/87 92/2/87 91/10/87
f 89/11/88 95/10/88 91/10/88
f 97/11/89 95/10/89 93/11/89
f 52/2/90 94/1/90 96/2/90
f 94/4/91 97/11/91 93/11/91
f 100/10/92 54/18/92 56/19/92
f 54/4/93 97/11/93 50/4/93
f 100/10/94 52/2/94 98/10/94
f 99/11/95 98/10/95 97/11/95
f 7/1/1 42/1/1 44/2/1
f 23/3/96 3/11/96 7/4/96
f 7/1/3 5/2/3 24/6/3
f 8/8/97 12/8/97 10/9/97
f 1/10/98 3/11/98 26/11/98
f 5/2/99 1/10/99 21/12/99
f 10/9/7 14/9/7 13/13/7
f 6/14/3 11/14/3 12/15/3
f 2/13/8 4/9/8 10/9/8
f 6/14/100 2/13/100 9/13/100
f 14/9/10 16/8/10 18/8/10
f 9/13/101 13/13/101 15/14/101
f 10/9/102 12/8/102 16/8/102
f 11/14/13 15/14/13 16/15/13
f 34/15/14 39/15/14 37/15/14
f 15/14/15 17/14/15 18/15/15
f 14/9/16 20/9/16 19/13/16
f 13/13/17 19/13/17 17/14/17
f 24/6/103 21/12/103 2/13/103
f 2/13/104 21/12/104 23/3/104
f 22/7/3 24/6/3 6/14/3
f 4/9/105 23/3/105 22/5/105
f 25/10/21 29/10/21 31/12/21
f 3/11/106 23/3/106 28/3/106
f 1/10/107 25/10/107 27/12/107
f 21/12/108 27/12/108 28/3/108
f 31/12/109 29/10/109 30/11/109
f 28/3/26 32/3/26 30/11/26
f 25/10/27 26/11/27 30/11/27
f 28/3/28 27/12/28 31/12/28
f 35/13/29 36/9/29 34/16/29
f 17/14/14 33/14/14 34/15/14
f 20/9/30 36/9/30 35/13/30
f 19/13/31 35/13/31 33/14/31
f 37/8/32 39/8/32 40/9/32
f 34/16/29 36/9/29 40/9/29
f 20/9/30 38/9/30 40/9/30
f 18/8/33 37/8/33 38/9/33
f 42/1/34 46/1/34 48/2/34
f 1/10/110 43/10/110 41/11/110
f 5/2/111 44/2/111 43/10/111
f 7/4/112 3/11/112 41/11/112
f 48/2/113 52/2/113 51/10/113
f 42/4/39 41/11/39 45/11/39
f 44/2/40 48/2/40 47/10/40
f 41/11/114 43/10/114 47/10/114
f 52/2/3 50/1/3 54/1/3
f 47/10/42 51/10/42 49/11/42
f 46/1/43 50/1/43 52/2/43
f 46/4/115 45/11/115 49/11/115
f 55/10/116 56/19/116 54/18/116
f 49/11/117 53/11/117 54/4/117
f 52/2/118 56/2/118 55/10/118
f 51/10/119 55/10/119 53/11/119
f 92/2/49 90/1/49 7/1/49
f 72/3/120 22/5/120 7/4/120
f 62/9/121 12/8/121 8/8/121
f 57/10/122 73/10/122 74/11/122
f 71/12/123 57/10/123 5/2/123
f 63/13/54 64/9/54 62/9/54
f 58/13/55 61/13/55 62/9/55
f 6/14/124 11/14/124 61/13/124
f 64/9/57 70/9/57 68/8/57
f 65/14/125 63/13/125 61/13/125
f 62/9/126 64/9/126 66/8/126
f 66/15/60 65/14/60 11/14/60
f 85/15/61 87/15/61 82/15/61
f 68/15/62 67/14/62 65/14/62
f 69/13/63 70/9/63 64/9/63
f 67/14/64 69/13/64 63/13/64
f 58/13/127 71/12/127 24/6/127
f 58/13/128 60/9/128 72/3/128
f 60/9/129 8/8/129 22/5/129
f 79/12/68 77/10/68 73/10/68
f 59/11/130 74/11/130 76/3/130
f 75/12/131 73/10/131 57/10/131
f 76/3/132 75/12/132 71/12/132
f 79/12/133 80/3/133 78/11/133
f 78/11/73 80/3/73 76/3/73
f 73/10/74 77/10/74 78/11/74
f 76/3/75 80/3/75 79/12/75
f 82/16/76 84/9/76 83/13/76
f 82/15/61 81/14/61 67/14/61
f 83/13/77 84/9/77 70/9/77
f 81/14/78 83/13/78 69/13/78
f 88/9/79 87/8/79 85/8/79
f 82/16/76 87/16/76 88/9/76
f 88/9/77 86/9/77 70/9/77
f 86/9/80 85/8/80 68/8/80
f 96/2/81 94/1/81 90/1/81
f 89/11/134 91/10/134 57/10/134
f 91/10/135 92/2/135 5/2/135
f 7/4/136 90/4/136 89/11/136
f 98/10/137 52/2/137 96/2/137
f 90/4/86 94/4/86 93/11/86
f 95/10/87 96/2/87 92/2/87
f 89/11/138 93/11/138 95/10/138
f 97/11/89 98/10/89 95/10/89
f 52/2/90 50/1/90 94/1/90
f 94/4/139 50/4/139 97/11/139
f 100/10/140 99/11/140 54/18/140
f 54/4/141 99/11/141 97/11/141
f 100/10/142 56/2/142 52/2/142
f 99/11/143 100/10/143 98/10/143
